<svg width="44" height="45" viewBox="0 0 44 45" fill="none" xmlns="http://www.w3.org/2000/svg">
<g id="akar-icons:linkedin-fill">
<g id="Group">
<path id="Vector" fill-rule="evenodd" clip-rule="evenodd" d="M1.83333 5.70301C1.83333 4.80932 2.18835 3.95224 2.82028 3.3203C3.45222 2.68837 4.3093 2.33335 5.203 2.33335H38.7933C39.2362 2.33262 39.6749 2.41926 40.0843 2.5883C40.4936 2.75734 40.8656 3.00547 41.1789 3.31846C41.4923 3.63146 41.7408 4.00319 41.9103 4.41237C42.0798 4.82154 42.1669 5.26013 42.1667 5.70301V39.2933C42.1671 39.7363 42.0803 40.175 41.911 40.5844C41.7418 40.9938 41.4935 41.3658 41.1804 41.6791C40.8672 41.9924 40.4954 42.2409 40.0861 42.4104C39.6768 42.5798 39.2381 42.6669 38.7952 42.6667H5.203C4.76033 42.6667 4.322 42.5795 3.91306 42.41C3.50411 42.2405 3.13256 41.9922 2.81963 41.6791C2.50671 41.366 2.25854 40.9943 2.0893 40.5853C1.92007 40.1762 1.83309 39.7378 1.83333 39.2952V5.70301ZM17.798 17.7113H23.2595V20.454C24.0478 18.8773 26.0645 17.4583 29.095 17.4583C34.9048 17.4583 36.2817 20.5988 36.2817 26.361V37.0347H30.4022V27.6737C30.4022 24.392 29.6138 22.5403 27.6118 22.5403C24.8343 22.5403 23.6793 24.5368 23.6793 27.6737V37.0347H17.798V17.7113ZM7.71466 36.7835H13.596V17.4583H7.71466V36.7817V36.7835ZM14.4375 11.1553C14.4486 11.6589 14.359 12.1596 14.1739 12.6281C13.9889 13.0966 13.7121 13.5233 13.3599 13.8834C13.0077 14.2435 12.5871 14.5295 12.1228 14.7249C11.6585 14.9202 11.1599 15.0208 10.6562 15.0208C10.1526 15.0208 9.65394 14.9202 9.18966 14.7249C8.72538 14.5295 8.30479 14.2435 7.95257 13.8834C7.60035 13.5233 7.3236 13.0966 7.13856 12.6281C6.95351 12.1596 6.86391 11.6589 6.875 11.1553C6.89676 10.1669 7.3047 9.2263 8.01145 8.53494C8.7182 7.84358 9.66757 7.45645 10.6562 7.45645C11.6449 7.45645 12.5943 7.84358 13.301 8.53494C14.0078 9.2263 14.4157 10.1669 14.4375 11.1553Z" fill="white"/>
</g>
</g>
</svg>
