<svg width="47" height="47" viewBox="0 0 47 47" fill="none" xmlns="http://www.w3.org/2000/svg">
<g id="akar-icons:twitter-fill">
<g id="Group">
<path id="Vector" d="M46.3009 9.6683C44.6657 10.3929 42.909 10.8825 41.0623 11.1038C42.9678 9.9636 44.3934 8.16913 45.073 6.05518C43.2828 7.11853 41.3235 7.86702 39.2803 8.26809C37.9062 6.80104 36.0863 5.82865 34.1031 5.50189C32.1198 5.17514 30.0841 5.51231 28.3121 6.46105C26.5401 7.40978 25.1309 8.91701 24.3032 10.7487C23.4756 12.5804 23.2758 14.6341 23.735 16.591C20.1076 16.4089 16.5589 15.466 13.3195 13.8237C10.08 12.1814 7.22202 9.8762 4.93109 7.05784C4.14775 8.40909 3.69734 9.97576 3.69734 11.6443C3.69646 13.1463 4.06635 14.6253 4.77418 15.9501C5.48201 17.2749 6.5059 18.4045 7.755 19.2387C6.30638 19.1926 4.88971 18.8012 3.62292 18.097V18.2145C3.62277 20.3211 4.35148 22.363 5.6854 23.9935C7.01932 25.624 8.87629 26.7429 10.9412 27.1601C9.59737 27.5238 8.18846 27.5774 6.82088 27.3168C7.40348 29.1295 8.53833 30.7146 10.0666 31.8502C11.5948 32.9858 13.4399 33.6152 15.3435 33.6501C12.112 36.1869 8.12099 37.563 4.01263 37.5569C3.28487 37.5571 2.55774 37.5146 1.83496 37.4296C6.00519 40.1109 10.8596 41.5339 15.8175 41.5284C32.6004 41.5284 41.7752 27.6282 41.7752 15.5727C41.7752 15.181 41.7654 14.7854 41.7478 14.3938C43.5324 13.1032 45.0728 11.505 46.297 9.67417L46.3009 9.6683Z" fill="white"/>
</g>
</g>
</svg>
