<svg width="25" height="24" viewBox="0 0 25 24" fill="none" xmlns="http://www.w3.org/2000/svg">
<rect width="25" height="24" fill="#E5E5E5"/>
<g clip-path="url(#clip0_142_83)">
<rect width="1440" height="809" transform="translate(-21 -77)" fill="#EEEEEE"/>
<rect width="68" height="809" transform="translate(-21 -77)" fill="white"/>
<path d="M2.5 13L11.793 3.70697C11.9805 3.5195 12.2348 3.41418 12.5 3.41418C12.7652 3.41418 13.0195 3.5195 13.207 3.70697L22.5 13H20.5V21C20.5 21.2652 20.3946 21.5195 20.2071 21.7071C20.0196 21.8946 19.7652 22 19.5 22H14.5V15H10.5V22H5.5C5.23478 22 4.98043 21.8946 4.79289 21.7071C4.60536 21.5195 4.5 21.2652 4.5 21V13H2.5Z" fill="black"/>
</g>
<defs>
<clipPath id="clip0_142_83">
<rect width="1440" height="809" fill="white" transform="translate(-21 -77)"/>
</clipPath>
</defs>
</svg>
